<?xml version="1.0" standalone="no"?>
<!DOCTYPE svg PUBLIC "-//W3C//DTD SVG 20010904//EN"
 "http://www.w3.org/TR/2001/REC-SVG-20010904/DTD/svg10.dtd">
<svg version="1.0" xmlns="http://www.w3.org/2000/svg"
 width="1080.000000pt" height="1080.000000pt" viewBox="0 0 1080.000000 1080.000000"
 preserveAspectRatio="xMidYMid meet">
<metadata>
Created by potrace 1.14, written by Peter Selinger 2001-2017
</metadata>
<g transform="translate(0.000000,1080.000000) scale(0.100000,-0.100000)"
fill="#000000" stroke="none">
<path d="M6757 9903 c-4 -494 -8 -1187 -9 -1540 -2 -354 -6 -643 -10 -643 -10
0 -97 76 -136 119 -119 130 -309 369 -376 474 l-38 59 38 32 c37 32 37 34 42
118 7 130 -21 283 -86 478 -35 104 -55 142 -97 178 -50 45 -84 43 -140 -9 -25
-23 -45 -37 -45 -32 0 12 31 56 48 66 9 6 11 18 7 39 -5 20 -3 33 6 38 9 6 10
15 1 37 -6 15 -13 60 -15 98 -3 40 -19 107 -35 155 -17 47 -36 112 -42 145
-22 110 -93 242 -186 344 -27 30 -100 96 -162 147 -246 200 -673 371 -874 350
-36 -3 -58 -2 -58 4 0 14 -158 13 -220 -2 -48 -11 -82 -27 -270 -124 -55 -29
-75 -34 -135 -34 -38 0 -114 -7 -168 -15 -192 -29 -286 -99 -412 -307 l-70
-116 -75 -36 c-53 -25 -95 -37 -145 -42 -87 -8 -123 -22 -158 -63 -36 -44 -37
-98 -1 -140 36 -43 51 -39 18 4 -21 28 -25 42 -20 68 12 66 98 115 160 91 22
-8 20 -20 -8 -57 -13 -18 -38 -62 -55 -98 -25 -53 -37 -68 -59 -74 -80 -19
-158 -122 -150 -197 4 -33 4 -33 17 15 8 26 26 64 41 85 27 37 95 81 106 69 3
-3 -8 -36 -25 -72 -18 -37 -31 -69 -29 -71 4 -4 81 95 97 124 6 11 18 23 28
26 15 6 14 3 -3 -16 -12 -13 -26 -32 -32 -44 -17 -33 -84 -109 -93 -107 -5 2
-9 -4 -9 -12 0 -8 -27 -58 -60 -112 -81 -130 -99 -192 -97 -324 1 -105 14 -96
16 11 2 105 54 243 110 294 20 18 20 18 1 -40 -81 -256 -120 -535 -90 -644 5
-19 29 -57 53 -85 24 -27 50 -68 57 -89 24 -73 80 -155 148 -215 37 -33 101
-90 142 -127 41 -36 100 -78 130 -92 40 -18 82 -52 150 -122 93 -94 157 -141
213 -154 43 -10 32 7 -23 33 -51 24 -170 125 -170 144 0 6 10 1 22 -10 87 -78
311 -179 443 -198 37 -6 63 -18 100 -49 164 -134 333 -281 420 -366 180 -174
247 -222 401 -288 179 -77 352 -112 556 -112 60 0 108 -4 108 -9 0 -16 -65
-67 -204 -159 -139 -93 -244 -149 -331 -175 -56 -18 -279 -90 -525 -172 -91
-30 -221 -70 -290 -90 -310 -89 -502 -206 -668 -408 -130 -159 -355 -494 -509
-757 -154 -264 -413 -840 -631 -1408 -37 -94 -69 -172 -73 -172 -3 0 -11 17
-17 39 -17 55 -85 128 -133 142 -90 27 -246 -37 -288 -119 -25 -50 -35 -106
-23 -128 7 -12 6 -30 -4 -57 -18 -51 -18 -109 1 -153 8 -19 50 -74 93 -122 71
-78 298 -376 413 -541 24 -35 58 -84 75 -108 79 -114 271 -305 353 -353 31
-18 65 -43 76 -55 25 -28 119 -104 171 -139 74 -48 315 -122 459 -141 72 -9
202 -25 290 -37 154 -20 239 -20 349 -2 35 6 39 5 32 -11 -3 -10 -16 -61 -27
-114 -31 -139 -83 -237 -221 -407 -80 -99 -130 -182 -165 -270 -24 -61 -27
-83 -27 -194 -1 -112 2 -134 28 -210 57 -168 132 -277 215 -315 49 -22 51 -30
10 -33 -17 -1 -43 -8 -57 -16 -15 -7 -43 -16 -63 -19 -20 -3 -101 -31 -180
-63 -79 -31 -171 -65 -204 -76 l-60 -18 50 3 c44 4 239 72 420 148 28 12 68
25 90 29 85 16 142 45 198 102 62 63 157 191 208 282 23 39 52 88 66 109 13
22 31 57 38 78 18 50 66 120 128 187 28 28 45 52 40 52 -12 0 -109 -101 -140
-145 -11 -16 -44 -75 -72 -130 -92 -177 -243 -389 -329 -460 -56 -47 -115 -32
-189 48 -66 72 -130 211 -154 335 -16 83 -7 233 18 297 l19 50 179 1 c99 0
252 3 340 7 88 4 221 10 295 12 478 18 571 27 787 75 72 16 180 38 240 49 59
11 173 34 253 52 80 17 165 35 190 39 25 4 70 15 100 23 30 9 82 23 115 32
223 61 290 82 370 117 50 22 135 59 190 83 379 165 455 205 491 259 13 21 14
29 4 41 -7 8 -17 15 -22 15 -6 0 -6 -6 1 -14 30 -37 -32 -81 -254 -178 -82
-37 -215 -97 -295 -133 -149 -69 -263 -113 -360 -138 -236 -64 -530 -132 -670
-156 -112 -19 -263 -50 -445 -91 -54 -12 -147 -22 -230 -26 -77 -3 -198 -9
-269 -15 -72 -5 -201 -9 -289 -9 -87 0 -211 -5 -275 -10 -64 -6 -188 -10 -276
-8 l-158 3 61 90 c34 50 92 129 129 177 95 122 131 200 162 343 l25 120 50 3
c76 4 229 31 304 53 119 37 201 83 269 151 79 80 89 95 106 160 25 92 44 136
91 209 l46 71 38 -53 c56 -79 179 -158 291 -189 93 -26 531 -52 890 -54 l255
-1 165 47 c91 26 237 70 325 98 227 73 281 85 311 71 28 -12 30 -48 4 -62 -74
-42 -574 -274 -631 -293 -41 -13 -99 -34 -129 -47 -54 -22 -63 -22 -390 -21
-215 1 -327 -2 -313 -8 34 -14 629 -15 682 0 66 18 228 89 529 232 240 115
281 131 337 136 67 5 115 -12 115 -42 0 -14 -44 -46 -115 -85 -22 -12 -60 -34
-85 -49 -161 -100 -604 -317 -708 -348 -152 -44 -426 -95 -590 -109 -46 -4
-80 -10 -77 -13 13 -13 214 0 295 19 47 11 129 29 184 40 189 37 277 71 606
232 96 48 213 109 259 137 46 27 92 50 103 50 27 0 22 -30 -14 -75 l-31 -40
44 40 c24 22 84 78 132 125 l88 85 -56 -107 c-74 -144 -72 -193 7 -238 33 -18
50 -22 92 -17 53 5 213 71 303 125 168 100 193 112 263 128 111 24 145 27 184
14 46 -15 79 -61 136 -189 78 -176 156 -324 195 -369 42 -49 79 -55 133 -22
42 26 105 124 133 207 33 99 25 140 -63 318 -57 117 -73 159 -72 192 1 60 49
149 113 212 l56 55 -47 -33 c-83 -59 -145 -175 -135 -251 3 -21 37 -108 77
-194 69 -151 72 -159 68 -219 -7 -113 -102 -273 -173 -291 -34 -9 -64 15 -108
85 -34 55 -138 273 -171 359 -22 57 -63 117 -99 144 -22 16 -42 21 -90 20 -88
-2 -214 -31 -267 -61 -229 -132 -364 -196 -435 -208 -33 -5 -47 -2 -75 17 -29
20 -36 31 -38 65 -2 33 9 66 66 184 62 128 82 158 176 269 73 85 121 152 151
211 24 47 50 90 58 97 11 9 82 10 308 2 312 -10 327 -12 514 -59 165 -41 216
-49 400 -61 166 -11 411 -5 480 12 22 5 66 25 98 45 32 19 60 33 61 32 2 -2
15 -40 29 -84 64 -198 81 -380 80 -850 0 -282 -4 -402 -17 -505 -9 -74 -23
-196 -31 -271 -38 -353 -49 -397 -146 -589 -67 -132 -149 -342 -149 -379 0 -6
8 -11 18 -11 13 0 25 23 49 100 17 54 73 181 123 282 104 210 107 222 145 558
14 118 29 251 35 295 17 131 32 548 25 715 -14 348 -34 500 -92 674 l-35 109
40 76 c61 115 79 182 117 424 20 122 44 255 55 295 52 189 61 394 35 760 -8
114 -19 363 -24 554 -5 191 -12 351 -15 357 -4 5 -11 65 -16 133 -19 247 -111
459 -358 823 -169 249 -192 283 -192 289 0 13 -104 221 -148 298 -111 191
-254 392 -323 452 -108 94 -286 135 -587 136 -176 1 -342 22 -425 54 -89 34
-162 39 -404 28 -195 -9 -202 -10 -236 -36 -18 -14 -40 -26 -48 -26 -24 0
-120 39 -238 97 l-113 56 6 976 c3 537 9 1279 12 1649 l6 672 -145 0 -144 0
-6 -897z m-2177 642 c0 -14 -113 -55 -153 -55 -46 0 -153 -21 -203 -40 -24
-10 -26 -9 -14 5 20 24 111 62 187 79 65 14 183 21 183 11z m265 -32 c33 -9
65 -20 71 -24 6 -5 44 -20 85 -33 109 -36 161 -62 189 -92 l25 -28 -30 20
c-16 11 -50 29 -75 39 -25 11 -47 22 -50 26 -3 4 -21 10 -40 14 -19 4 -59 18
-88 32 -66 30 -141 43 -256 43 -55 0 -86 4 -80 9 24 24 147 21 249 -6z m-905
-153 c-8 -5 -24 -10 -35 -10 -11 0 -27 5 -35 10 -11 7 -1 10 35 10 36 0 46 -3
35 -10z m1390 -35 c44 -23 90 -54 80 -55 -16 -1 -144 60 -158 75 -16 16 -16
17 8 10 14 -4 45 -18 70 -30z m-1483 11 c3 -2 -34 -6 -81 -8 -79 -3 -112 4
-68 15 21 5 143 -1 149 -7z m-72 -33 c36 -6 38 -7 15 -14 -14 -4 -53 -7 -87
-8 -49 -1 -67 -6 -90 -24 -15 -13 -50 -37 -77 -52 -46 -27 -48 -27 -37 -6 7
12 38 42 69 66 52 41 62 45 112 45 30 0 73 -3 95 -7z m-100 -43 c-11 -5 -27
-9 -35 -9 -13 -1 -13 0 0 9 8 5 24 9 35 9 l20 0 -20 -9z m1710 -18 c-3 -3 -11
0 -18 7 -9 10 -8 11 6 5 10 -3 15 -9 12 -12z m-1830 -79 c-154 -165 -186 -197
-172 -168 31 63 99 141 154 177 32 21 59 38 60 38 1 0 -18 -21 -42 -47z m1989
-14 c42 -33 76 -63 76 -65 0 -14 -28 3 -73 44 -29 27 -63 56 -77 65 -13 9 -20
17 -14 17 6 0 46 -27 88 -61z m-34 -14 c25 -30 3 -25 -26 6 -22 24 -24 29 -8
21 11 -6 27 -18 34 -27z m151 -102 c13 -16 12 -17 -3 -4 -10 7 -18 15 -18 17
0 8 8 3 21 -13z m95 -136 c20 -32 34 -60 31 -63 -2 -3 -23 26 -46 63 -23 37
-49 79 -58 93 -12 20 -9 19 11 -5 15 -16 43 -56 62 -88z m-2475 2 c-23 -19
-74 -28 -55 -10 16 16 68 41 74 35 3 -3 -6 -14 -19 -25z m-147 -50 c-3 -5 -10
-7 -15 -3 -5 3 -7 10 -3 15 3 5 10 7 15 3 5 -3 7 -10 3 -15z m66 6 c0 -16 -38
-40 -48 -30 -4 4 4 15 17 26 28 23 31 23 31 4z m2590 -98 c23 -43 41 -80 39
-82 -3 -2 -26 38 -53 88 -27 51 -44 88 -38 82 6 -5 29 -45 52 -88z m-2565 58
c-16 -13 -34 -24 -40 -25 -5 0 4 11 20 25 17 13 35 24 40 25 6 0 -3 -11 -20
-25z m-85 -12 c0 -5 -12 -16 -26 -27 l-26 -19 17 27 c16 25 35 35 35 19z m-29
-96 c-72 -70 -70 -55 2 23 27 29 51 49 55 46 3 -4 -22 -35 -57 -69z m2783
-178 c23 -62 44 -160 32 -148 -6 5 -66 202 -66 215 0 16 11 -5 34 -67z m191
-380 c51 -57 71 -107 122 -304 70 -267 63 -405 -21 -440 -26 -11 -37 -11 -64
1 -23 9 -32 10 -30 2 5 -14 25 -25 59 -32 19 -4 30 -17 41 -45 33 -82 328
-441 499 -607 63 -61 149 -123 329 -240 42 -28 190 -96 245 -114 22 -7 52 -21
67 -31 14 -11 31 -19 37 -19 18 0 13 -10 -29 -66 -50 -66 -108 -113 -190 -154
-67 -34 -163 -70 -186 -70 -7 0 -51 57 -97 128 -92 139 -214 277 -264 299 -39
16 -97 17 -124 3 -55 -30 -89 -181 -89 -399 l0 -100 -84 -64 -85 -64 -114 -13
c-111 -13 -425 -9 -505 6 -31 6 -32 7 -16 25 12 13 31 19 61 19 45 0 164 29
232 56 68 27 162 166 230 340 73 184 115 401 95 490 -7 33 -9 20 -15 -76 -9
-169 -49 -313 -145 -515 -34 -73 -118 -191 -146 -206 -11 -6 -57 -22 -101 -36
-70 -22 -106 -26 -254 -30 -237 -7 -389 17 -591 92 -186 70 -264 121 -447 295
-49 47 -124 114 -165 150 -41 36 -77 67 -80 70 -16 17 -164 142 -185 156 l-26
17 48 23 c27 14 37 22 23 19 -68 -14 -97 -16 -119 -7 -21 7 -13 10 45 16 94
10 173 34 198 61 69 73 98 112 103 137 3 18 12 28 23 28 10 0 25 11 33 23 12
19 22 23 49 19 l33 -4 -50 52 c-49 52 -49 53 -14 32 58 -35 57 -26 -3 36 -52
53 -154 209 -144 219 2 3 31 -35 64 -84 76 -112 103 -142 176 -198 86 -65 90
-55 8 21 -84 77 -148 153 -115 135 39 -20 35 -12 -21 42 -42 42 -68 82 -121
188 -37 74 -63 130 -58 124 5 -5 27 -32 49 -60 164 -208 272 -268 479 -269
156 -1 167 17 15 24 -117 5 -130 7 -193 38 -38 19 -93 58 -125 89 -44 43 -48
49 -17 25 109 -81 234 -128 308 -117 51 8 97 24 97 35 0 5 -38 18 -85 31 -101
26 -108 37 -9 14 106 -26 169 -35 302 -44 195 -14 284 15 332 109 28 55 25 56
-17 8 -70 -78 -90 -89 -191 -101 -48 -6 -48 8 1 18 17 4 55 21 82 38 65 41
177 128 171 134 -2 2 -28 -14 -57 -36 -113 -85 -256 -142 -356 -140 -88 1 -89
14 -3 27 44 6 118 24 163 38 77 26 177 79 191 103 11 18 -3 13 -37 -13 -65
-48 -82 -48 -31 1 67 62 122 107 207 167 70 49 124 116 112 136 -20 32 69 -17
170 -94 l40 -30 -30 33 c-16 19 -52 51 -78 72 -27 22 -46 39 -43 39 15 0 82
-32 98 -47 11 -10 18 -12 18 -5 0 26 19 9 57 -50 22 -35 47 -77 55 -93 18 -33
55 -71 63 -63 3 3 1 17 -4 31 -6 15 -12 46 -14 70 -2 23 -12 55 -22 70 -9 15
-23 42 -29 60 -7 17 -20 48 -31 69 -17 35 -16 68 4 68 5 0 11 -9 14 -20 3 -10
2 -19 -2 -18 -18 2 -19 -4 -3 -20 11 -11 22 -38 26 -60 12 -80 21 -41 22 96 1
153 14 195 74 246 43 36 61 33 105 -15z m-3224 -216 c-15 -124 -14 -226 5
-289 8 -29 14 -68 12 -86 l-3 -33 -29 49 c-36 60 -43 124 -27 249 12 85 16
107 36 192 13 55 17 7 6 -82z m12 -113 c3 -11 1 -18 -4 -14 -5 3 -9 12 -9 20
0 20 7 17 13 -6z m2893 -11 c3 -6 -5 -3 -20 6 -14 10 -26 19 -26 22 0 7 39
-17 46 -28z m-227 -55 c-18 -20 -43 -40 -53 -46 -29 -16 21 44 54 65 37 23 37
20 -1 -19z m-2598 -244 c15 -33 15 -40 4 -40 -18 0 -35 31 -35 66 0 33 7 27
31 -26z m1268 -35 c0 -5 -6 1 -14 15 -8 14 -14 30 -14 35 0 6 6 -1 14 -15 8
-14 14 -29 14 -35z m-1208 -102 c27 -61 121 -167 209 -236 22 -18 26 -24 11
-16 -39 18 -167 126 -199 167 -35 44 -82 135 -82 158 0 31 31 -7 61 -73z
m1227 62 c-3 -3 -9 2 -12 12 -6 14 -5 15 5 6 7 -7 10 -15 7 -18z m512 -122
c13 -14 -92 12 -155 39 -108 45 -96 47 33 5 64 -21 119 -41 122 -44z m-530
-523 c-8 -5 -24 -9 -35 -9 -16 1 -16 2 5 9 35 11 48 11 30 0z m3790 -405 c39
-8 85 -22 102 -31 44 -23 222 -44 378 -44 248 -1 380 -23 509 -88 64 -31 83
-47 128 -107 94 -123 243 -363 332 -534 91 -174 94 -179 263 -436 217 -330
306 -522 354 -758 9 -49 17 -203 24 -477 6 -223 17 -493 25 -600 27 -369 29
-455 11 -593 -9 -70 -27 -169 -41 -220 -13 -50 -31 -139 -39 -197 -47 -315
-77 -418 -162 -545 -30 -46 -50 -63 -108 -93 l-71 -37 -252 -3 c-305 -4 -507
19 -702 79 -96 29 -248 38 -796 49 -629 12 -600 8 -921 136 -122 48 -241 72
-489 99 -225 23 -281 34 -385 76 -52 20 -104 40 -115 44 -15 5 -1 16 70 54
396 211 683 401 820 541 73 76 103 94 248 154 49 20 120 52 158 71 128 65 313
225 384 333 28 43 39 50 50 32 3 -5 27 -24 53 -41 l47 -31 -55 49 -54 50 23
59 c12 32 27 75 33 94 16 55 24 60 97 60 l66 0 25 -47 c35 -66 68 -102 195
-210 61 -51 140 -120 177 -151 44 -39 118 -85 215 -135 142 -74 170 -91 334
-202 63 -42 250 -190 525 -412 34 -28 84 -60 110 -73 77 -36 112 -67 140 -122
l26 -51 -36 6 c-42 7 -190 90 -269 151 -30 22 -92 71 -138 109 -46 37 -120 86
-164 109 -80 42 -352 208 -455 278 -30 21 -93 62 -140 90 -47 29 -141 92 -210
140 -111 78 -186 125 -169 106 14 -15 370 -255 522 -351 310 -198 379 -241
432 -267 79 -40 127 -74 227 -159 164 -139 384 -257 418 -223 6 6 -4 33 -28
74 -34 59 -45 69 -116 107 -43 23 -91 53 -106 65 -15 13 -88 71 -161 131 -74
59 -163 131 -198 160 -72 58 -254 194 -316 234 -22 15 -107 62 -189 106 -171
90 -191 102 -266 172 -30 29 -100 89 -155 136 -55 46 -108 93 -117 104 -23 26
-81 125 -77 129 2 2 33 18 69 36 36 18 108 61 161 96 l97 65 118 -87 c165
-119 209 -157 228 -199 18 -37 14 -75 -8 -75 -12 0 -130 78 -196 130 -39 31
-133 79 -213 111 -72 28 -58 18 49 -35 50 -25 133 -77 185 -116 51 -39 113
-80 137 -91 42 -21 43 -21 63 -3 28 25 19 77 -18 117 -29 30 -298 236 -321
244 -17 7 1 29 41 49 29 16 77 13 142 -7 56 -17 186 -170 262 -308 88 -158
111 -188 220 -275 58 -47 119 -88 135 -91 30 -7 58 7 58 29 0 12 -49 82 -117
169 -21 26 -50 64 -65 83 -15 19 -38 70 -53 112 -14 42 -43 110 -65 151 -22
41 -38 76 -36 78 8 9 131 -95 200 -168 78 -82 146 -180 231 -329 87 -154 121
-196 204 -248 95 -60 149 -82 204 -81 l42 0 -58 19 c-155 51 -247 127 -337
277 -178 298 -285 421 -495 565 -107 73 -248 139 -293 137 -9 0 6 -8 33 -18
60 -22 120 -51 198 -98 41 -25 57 -41 57 -56 0 -12 7 -31 15 -41 23 -30 18
-42 -7 -19 -56 50 -137 93 -211 112 -44 11 -80 21 -82 23 -5 5 -68 178 -122
333 -66 192 -140 377 -181 453 -49 90 -184 224 -292 290 -77 47 -86 57 -122
123 -114 210 -353 489 -621 725 -65 58 -142 123 -171 144 -43 33 -126 137
-114 144 2 1 30 10 63 20 162 49 302 155 390 296 l41 65 139 5 c266 11 324 10
395 -5z m-2367 -586 c130 -24 408 -21 544 7 31 6 30 5 -29 -57 -116 -125 -234
-271 -273 -341 -31 -56 -60 -88 -130 -148 -61 -52 -89 -84 -88 -96 1 -11 -4
-36 -13 -57 -16 -42 -11 -97 12 -134 10 -15 14 -54 14 -121 0 -91 2 -102 28
-143 61 -95 220 -209 294 -209 15 0 29 -4 33 -9 3 -5 -39 -49 -92 -97 -201
-181 -330 -322 -423 -462 -12 -18 -55 -34 -210 -77 -235 -67 -452 -144 -661
-236 -85 -38 -158 -69 -161 -69 -3 0 -27 32 -54 70 -26 39 -50 70 -52 70 -5 0
18 -37 63 -101 l33 -46 -47 -23 c-25 -13 -131 -63 -236 -112 -226 -106 -401
-199 -438 -234 -18 -17 -27 -35 -27 -56 0 -25 -26 -62 -139 -197 -77 -91 -172
-195 -211 -230 -178 -159 -321 -351 -469 -631 -90 -170 -126 -216 -159 -206
-12 4 -51 44 -88 89 -37 45 -77 91 -90 102 -45 40 -207 311 -229 382 -7 24 52
182 221 591 230 556 407 928 580 1217 125 211 424 616 529 718 154 150 312
227 675 327 139 38 155 43 345 113 83 30 202 69 265 87 63 17 153 50 200 73
81 39 311 187 375 241 17 14 37 23 45 20 8 -3 37 -10 63 -15z m346 -1865 c54
-45 137 -242 166 -395 37 -200 27 -390 -31 -533 -52 -132 -180 -313 -290 -410
l-66 -59 26 52 c37 71 45 156 46 436 l0 240 -29 60 c-16 33 -32 75 -36 92 -3
18 -10 35 -15 38 -15 9 1 -67 27 -129 18 -43 26 -85 30 -150 6 -118 -12 -491
-26 -536 -22 -71 -75 -143 -146 -197 -57 -44 -333 -217 -370 -232 -5 -2 -57
-31 -114 -64 -57 -33 -133 -73 -170 -89 -36 -16 -142 -67 -236 -115 l-170 -85
-45 12 c-29 8 -57 25 -80 50 -41 44 -110 168 -161 290 -56 135 -146 253 -269
358 -36 30 -83 78 -104 106 -78 103 -153 294 -170 437 l-5 45 122 67 c67 36
203 104 302 150 99 47 266 125 370 174 311 148 594 247 980 344 201 51 283 66
367 68 58 1 70 -2 97 -25z m2746 -203 c22 -10 69 -37 104 -59 35 -23 69 -42
76 -42 16 0 48 -62 81 -157 22 -67 39 -95 91 -155 35 -40 71 -86 80 -103 9
-16 26 -42 39 -58 29 -35 22 -61 -15 -52 -27 7 -60 31 -177 126 -57 46 -80 75
-133 165 -86 146 -143 226 -215 303 l-61 63 45 -7 c25 -4 63 -15 85 -24z
m-4973 -779 l22 -73 -50 -52 c-28 -29 -81 -87 -118 -129 -38 -43 -84 -87 -102
-99 -40 -24 -78 -20 -94 11 -19 35 21 96 210 325 75 92 106 123 108 109 1 -10
12 -52 24 -92z m127 -270 c17 -27 42 -59 55 -71 l25 -23 -52 -67 c-28 -36 -78
-92 -109 -124 -47 -47 -63 -58 -85 -55 -24 3 -28 7 -27 34 1 22 151 354 160
354 1 0 16 -22 33 -48z m-1700 -7 c16 -8 40 -28 55 -45 24 -29 31 -47 57 -155
16 -61 101 -231 168 -332 32 -49 92 -125 132 -168 41 -42 89 -93 107 -112 28
-30 37 -35 66 -30 24 4 33 1 33 -9 0 -8 -4 -14 -9 -14 -5 0 -4 -9 2 -19 5 -11
10 -64 10 -119 0 -109 4 -119 95 -217 87 -93 123 -153 130 -213 4 -31 14 -67
21 -80 16 -24 16 -24 -40 -37 -17 -3 -35 -13 -41 -22 -10 -14 -17 -14 -67 1
-30 9 -83 34 -116 57 -95 63 -279 267 -422 467 -187 262 -303 414 -387 505
-41 45 -81 96 -89 114 -18 42 -18 124 0 168 13 31 13 35 0 35 -33 0 -6 110 39
158 61 66 192 100 256 67z m1947 -246 l57 -71 -13 -42 c-24 -81 -94 -186 -124
-186 -33 1 -34 15 -10 160 13 80 24 160 24 178 0 17 2 32 5 32 2 0 30 -32 61
-71z m224 -1095 c37 -7 76 -25 140 -64 123 -77 218 -121 311 -144 l87 -22 -18
-41 c-21 -48 -83 -119 -119 -137 -14 -8 -51 -17 -81 -21 -30 -4 -57 -11 -60
-15 -3 -4 -26 -19 -52 -34 -43 -25 -51 -26 -82 -16 -33 11 -88 62 -99 92 -4
10 -7 11 -18 1 -17 -17 -32 -16 -26 1 4 9 -4 16 -24 20 -44 8 -89 57 -89 96 0
55 37 102 95 118 l30 9 -37 16 c-43 18 -49 46 -22 100 24 46 35 58 48 50 6 -4
13 -8 16 -9z"/>
<path d="M5988 8889 c-10 -5 -18 -17 -18 -24 0 -18 5 -18 29 -4 27 18 69 3 86
-31 9 -17 20 -28 24 -25 15 9 0 44 -31 70 -31 26 -61 31 -90 14z"/>
<path d="M6080 8758 c-42 -64 -52 -137 -26 -174 21 -27 26 -15 15 33 -7 35 -5
52 11 94 23 57 23 81 0 47z"/>
<path d="M6154 8200 c3 -30 12 -80 20 -110 l14 -55 1 41 c1 50 -18 156 -32
169 -6 7 -7 -9 -3 -45z"/>
<path d="M5640 7247 c-19 -13 -59 -36 -88 -52 -28 -15 -50 -30 -48 -33 6 -6
116 54 151 83 38 31 30 32 -15 2z"/>
<path d="M8130 7110 c-18 -12 -2 -12 25 0 13 6 15 9 5 9 -8 0 -22 -4 -30 -9z"/>
<path d="M7920 7019 c-74 -39 -139 -75 -145 -80 -8 -9 280 136 294 148 22 17
-37 -10 -149 -68z"/>
<path d="M8396 6963 c-3 -10 -12 -79 -20 -153 -9 -74 -24 -162 -36 -194 -27
-79 -70 -273 -69 -311 0 -16 18 35 38 115 20 80 45 168 54 195 22 69 36 153
44 267 6 92 2 121 -11 81z"/>
<path d="M7698 6904 c-39 -21 -35 -28 5 -8 37 19 44 24 31 24 -5 -1 -21 -8
-36 -16z"/>
<path d="M7580 6850 c-8 -5 -10 -10 -5 -10 6 0 17 5 25 10 8 5 11 10 5 10 -5
0 -17 -5 -25 -10z"/>
<path d="M7478 6799 c-21 -11 -38 -22 -38 -24 0 -3 18 4 40 15 22 11 40 23 40
25 0 7 0 7 -42 -16z"/>
<path d="M7399 6749 l-24 -20 28 17 c15 9 27 18 27 20 0 8 -8 4 -31 -17z"/>
<path d="M7896 6273 c-31 -92 -56 -175 -55 -183 0 -8 27 66 59 165 33 98 58
181 56 183 -2 2 -29 -72 -60 -165z"/>
<path d="M9350 6282 c0 -6 31 -45 70 -84 38 -40 84 -97 102 -126 31 -49 139
-202 237 -337 24 -33 62 -79 84 -103 52 -58 71 -106 97 -242 21 -109 22 -124
10 -293 -6 -99 -9 -181 -7 -183 6 -7 16 93 23 246 4 101 2 159 -10 230 -24
142 -32 163 -96 247 -82 107 -266 363 -323 448 -47 72 -187 219 -187 197z"/>
<path d="M8262 6215 c0 -16 2 -22 5 -12 2 9 2 23 0 30 -3 6 -5 -1 -5 -18z"/>
<path d="M8274 6000 c0 -63 1 -89 3 -57 2 31 2 83 0 115 -2 31 -3 5 -3 -58z"/>
<path d="M9510 6011 c0 -6 4 -13 10 -16 6 -3 7 1 4 9 -7 18 -14 21 -14 7z"/>
<path d="M9691 5605 c0 -5 6 -30 13 -55 8 -25 15 -36 15 -25 -1 21 -27 98 -28
80z"/>
<path d="M9721 5498 c-1 -8 43 -270 65 -383 26 -138 45 -342 50 -555 2 -113 4
-208 4 -212 0 -5 18 9 40 31 l40 39 -2 128 -2 129 -3 -125 c-3 -97 -7 -128
-20 -142 -9 -10 -19 -18 -24 -18 -4 0 -9 71 -12 158 -8 260 -27 435 -73 672
-39 202 -61 298 -63 278z"/>
<path d="M8090 4140 c19 -11 40 -19 45 -19 6 0 -6 8 -25 19 -19 11 -39 19 -45
19 -5 0 6 -8 25 -19z"/>
<path d="M7305 3773 c36 -87 77 -121 375 -316 385 -251 674 -334 1284 -367
215 -12 294 -27 511 -99 149 -49 285 -74 285 -52 0 6 -21 11 -50 11 -32 0 -95
15 -173 41 -248 82 -365 105 -587 114 -333 14 -670 77 -896 168 -164 66 -193
83 -541 314 -87 57 -172 142 -195 193 -19 44 -31 37 -13 -7z"/>
<path d="M6862 3467 c49 -49 295 -200 453 -279 72 -37 291 -111 462 -157 259
-70 441 -89 1128 -115 337 -13 352 -15 406 -39 66 -29 139 -40 189 -29 31 7
26 9 -42 14 -53 4 -96 15 -135 33 -57 26 -63 27 -363 36 -323 9 -654 24 -723
33 -309 41 -489 82 -747 173 -153 54 -396 181 -550 287 -81 55 -104 68 -78 43z"/>
<path d="M3666 5340 c3 -30 15 -95 25 -145 11 -49 33 -155 49 -235 49 -243 60
-287 100 -392 40 -106 62 -140 80 -122 7 7 4 23 -9 50 -49 103 -98 259 -156
503 -35 146 -70 295 -79 331 l-16 65 6 -55z"/>
<path d="M3362 5013 c2 -5 24 -51 50 -103 25 -52 71 -148 101 -212 82 -174
227 -388 263 -388 25 0 15 20 -46 95 -88 108 -131 176 -225 360 -90 177 -134
255 -142 255 -2 0 -3 -3 -1 -7z"/>
<path d="M3140 4567 c0 -2 33 -26 73 -53 39 -27 126 -88 192 -135 126 -91 211
-139 245 -139 37 0 21 15 -58 52 -42 20 -120 66 -172 104 -107 75 -280 181
-280 171z"/>
<path d="M2120 3594 c0 -12 89 -140 110 -159 21 -19 21 -19 14 1 -21 57 -124
188 -124 158z"/>
<path d="M2005 3434 c127 -93 265 -182 265 -170 0 7 -194 153 -227 170 -40 20
-65 21 -38 0z"/>
<path d="M2977 9773 c-4 -6 0 -16 8 -23 21 -17 28 -8 11 15 -8 11 -15 14 -19
8z"/>
<path d="M2097 2880 c-4 -14 -14 -61 -23 -105 -8 -44 -44 -211 -80 -372 -76
-344 -88 -427 -81 -548 8 -151 56 -260 265 -606 233 -387 294 -498 288 -522
-7 -29 -35 -59 -93 -98 -113 -76 -163 -156 -163 -262 0 -124 74 -189 271 -237
106 -27 160 -55 179 -97 10 -22 22 -33 38 -33 26 0 27 2 7 40 -30 58 -80 84
-252 130 -140 37 -203 97 -203 192 0 99 49 179 152 249 32 22 67 54 77 70 l18
30 47 -63 c47 -63 498 -523 569 -580 44 -35 126 -68 165 -67 20 1 17 3 -14 9
-64 13 -135 74 -405 347 -261 263 -303 316 -431 543 -53 93 -67 128 -77 186
-6 39 -23 105 -37 145 -24 67 -27 92 -33 269 l-6 195 -8 -167 c-8 -162 -4
-224 15 -260 9 -19 58 -201 54 -205 -4 -5 -257 418 -295 495 -23 46 -56 124
-73 175 -29 89 -30 96 -25 212 5 96 21 185 76 440 72 331 96 469 89 501 -4 16
-6 15 -11 -6z"/>
<path d="M2297 2493 c-14 -32 -44 -115 -65 -184 -22 -68 -58 -164 -81 -214
-73 -157 -111 -285 -109 -368 l1 -72 7 75 c8 89 46 201 123 360 31 63 67 154
81 203 14 48 37 121 52 161 33 93 27 119 -9 39z"/>
<path d="M9586 2519 c-2 -8 -7 -57 -9 -109 -9 -176 -78 -333 -318 -725 -195
-317 -203 -331 -253 -435 -112 -233 -134 -484 -67 -747 20 -77 106 -276 127
-294 22 -18 17 17 -12 86 -70 167 -88 234 -105 397 -15 146 -1 284 42 424 38
121 61 167 203 409 167 283 214 368 279 500 88 178 107 240 117 380 7 113 6
146 -4 114z"/>
<path d="M2790 2027 c0 -3 13 -34 30 -69 l30 -63 0 -205 c1 -217 15 -336 60
-485 12 -38 26 -90 32 -115 6 -25 31 -92 55 -150 57 -133 93 -285 100 -420 5
-107 5 -110 96 -354 6 -17 24 -45 40 -63 27 -30 33 -33 86 -32 56 2 56 2 14 8
-53 9 -87 40 -109 100 -10 25 -35 90 -56 144 -33 84 -38 108 -38 178 0 112
-48 316 -105 448 -25 57 -45 109 -45 116 0 7 -14 57 -31 111 -65 205 -79 298
-79 527 0 188 -2 211 -21 251 -18 38 -59 89 -59 73z"/>
<path d="M7298 1925 c-76 -56 -343 -213 -483 -285 -125 -64 -412 -172 -615
-232 -77 -23 -86 -27 -45 -23 105 12 428 130 674 245 70 33 135 60 145 60 11
0 14 4 10 12 -5 8 -2 9 10 5 15 -6 152 41 143 49 -2 2 -32 -7 -67 -21 -35 -14
-65 -23 -67 -22 -6 7 32 35 81 61 96 51 291 187 265 186 -2 0 -25 -16 -51 -35z"/>
<path d="M2302 1870 c0 -14 2 -19 5 -12 2 6 2 18 0 25 -3 6 -5 1 -5 -13z"/>
<path d="M2287 1795 c-4 -22 -6 -53 -6 -70 1 -16 5 -3 10 30 10 67 6 102 -4
40z"/>
<path d="M3550 1597 c-90 -214 -138 -301 -226 -417 -15 -19 1 -7 34 27 49 50
73 88 130 205 62 126 119 275 109 284 -2 2 -23 -42 -47 -99z"/>
<path d="M5940 1163 c-8 -4 14 -12 49 -19 100 -21 163 -57 216 -122 43 -55 45
-60 45 -122 -1 -132 -18 -301 -35 -326 -23 -35 -45 -31 -45 9 0 72 -99 192
-179 215 -23 8 -116 12 -242 12 l-205 0 -69 -34 c-39 -18 -90 -48 -115 -67
-61 -47 -136 -92 -204 -123 -73 -33 -181 -37 -230 -7 -36 22 -181 81 -199 81
-6 0 47 -27 118 -60 116 -53 137 -60 195 -60 57 0 77 6 166 49 56 27 137 73
180 103 142 98 158 102 383 100 210 -3 241 -9 294 -60 41 -39 75 -100 87 -160
7 -30 17 -52 24 -52 24 0 64 40 75 73 12 40 31 229 31 311 -1 65 -7 80 -58
143 -61 75 -220 140 -282 116z"/>
<path d="M6948 1013 c7 -3 16 -2 19 1 4 3 -2 6 -13 5 -11 0 -14 -3 -6 -6z"/>
<path d="M7029 982 c34 -28 34 -28 29 -98 -3 -38 -9 -78 -12 -89 -3 -11 1 -5
10 14 8 19 17 59 20 89 3 49 1 56 -25 83 -16 16 -35 29 -42 29 -7 0 2 -13 20
-28z"/>
<path d="M4993 174 c3 -4 109 -10 234 -14 143 -6 278 -16 363 -30 74 -11 180
-21 235 -21 139 0 258 -16 338 -44 93 -34 273 -65 375 -65 76 0 89 3 119 26
39 30 63 72 62 111 0 23 -3 19 -15 -20 -11 -36 -25 -55 -56 -77 -36 -26 -50
-30 -107 -30 -79 0 -275 38 -386 75 -69 23 -106 27 -275 35 -107 5 -220 14
-250 20 -106 21 -336 40 -489 40 -85 0 -152 -3 -148 -6z"/>
</g>
</svg>
